# xmcd
#
# Track frame offsets: 
#        7450
#        17920
#        35310
#        46962
#        63842
#        73280
#        89467
#        108027
#        122582
#        133102
#        147712
#        160442
#        169692
#        180752
#        196460
#
# Disc length: 2797 seconds
#
# Revision: 2
# Processed by: cddbd v1.5.1PL0 Copyright (c) Steve Scherf et al.
# Submitted via: ExactAudioCopy v0.95a5
#
DISCID=e10a8a0f
DTITLE=Willie Nelson - Moonlight Becomes You
DYEAR=1900
DGENRE=
TTITLE0=December Day
TTITLE1=Moonlight Becomes You
TTITLE2=Afraid
TTITLE3=The Heart of a Clown
TTITLE4=Please Don't Talk About Me When I'm Gone
TTITLE5=Everywhere You Go
TTITLE6=Have I Stayed Away Too Long
TTITLE7=Sentimental Journey
TTITLE8=The World Is Waiting For The Sunrise
TTITLE9=You'll Never Know
TTITLE10=I'll Keep On Loving You
TTITLE11=You Just Can't Play A Sad Song On A Banjo
TTITLE12=You Always Hurt The One You Love
TTITLE13=Someday (You'll Want Me To Want You)
TTITLE14=In God's Eyes
EXTD=
EXTT0=
EXTT1=
EXTT2=
EXTT3=
EXTT4=
EXTT5=
EXTT6=
EXTT7=
EXTT8=
EXTT9=
EXTT10=
EXTT11=
EXTT12=
EXTT13=
EXTT14=
PLAYORDER=
